<svg width="43" height="42" viewBox="0 0 43 42" fill="none" xmlns="http://www.w3.org/2000/svg">
<path fill-rule="evenodd" clip-rule="evenodd" d="M34.898 33.5525V8.62533H7.83425V33.5525H34.898ZM3.73907 37.6477V39.3391C3.73907 40.47 4.65581 41.3867 5.78666 41.3867C6.91751 41.3867 7.83425 40.47 7.83425 39.3391V37.6477H34.898H38.9932V33.5525V8.62533H40.6847C41.8155 8.62533 42.7323 7.7086 42.7323 6.57775C42.7323 5.4469 41.8155 4.53016 40.6847 4.53016H38.9932V2.66062C38.9932 1.52977 38.0764 0.613037 36.9456 0.613037C35.8147 0.613037 34.898 1.52977 34.898 2.66062V4.53016H7.83425H3.73907V8.62533V33.5525H2.04759C0.916736 33.5525 0 34.4692 0 35.6001C0 36.7309 0.916735 37.6477 2.04759 37.6477H3.73907ZM9.0806 9.87169H23.5027V20.3767H9.0806V9.87169ZM33.6516 21.8011H19.2295V32.3061H33.6516V21.8011ZM24.7491 9.87169H33.6516V20.3767H24.7491V9.87169ZM17.9832 21.8011H9.0806V32.3061H17.9832V21.8011Z" fill="url(#paint0_linear_816_371)"/>
<defs>
<linearGradient id="paint0_linear_816_371" x1="21.3661" y1="0.613037" x2="21.3661" y2="41.3867" gradientUnits="userSpaceOnUse">
<stop stop-color="#ED1E79"/>
<stop offset="1" stop-color="#FBB03B"/>
</linearGradient>
</defs>
</svg>
